<?xml version="1.0" standalone="no"?>
<!DOCTYPE svg PUBLIC "-//W3C//DTD SVG 20010904//EN"
 "http://www.w3.org/TR/2001/REC-SVG-20010904/DTD/svg10.dtd">
<svg version="1.0" xmlns="http://www.w3.org/2000/svg"
 width="1920.000000pt" height="1080.000000pt" viewBox="0 0 1920.000000 1080.000000"
 preserveAspectRatio="xMidYMid meet">

<g transform="translate(0.000000,1080.000000) scale(0.100000,-0.100000)"
fill="#000000" stroke="none">
<path d="M16028 10013 c-16 -36 -23 -63 -18 -73 4 -8 6 -28 4 -45 -9 -91 -25
-259 -30 -320 -4 -38 -11 -78 -16 -88 -5 -9 -6 -22 -2 -28 3 -6 1 -29 -5 -52
-6 -23 -13 -60 -15 -82 -11 -93 -28 -202 -37 -235 -6 -19 -16 -80 -24 -135 -7
-55 -21 -129 -29 -163 -9 -35 -17 -82 -18 -103 -1 -22 -6 -39 -13 -39 -7 0
-11 -16 -9 -43 1 -24 -9 -92 -23 -152 -14 -61 -31 -144 -38 -185 -8 -41 -21
-109 -29 -150 -9 -41 -20 -102 -26 -135 -6 -33 -14 -69 -19 -80 -4 -11 -16
-60 -25 -110 -9 -49 -26 -108 -36 -130 -11 -22 -19 -56 -19 -75 0 -65 -13
-115 -37 -138 -30 -28 -32 -47 -4 -32 33 17 23 -5 -17 -44 -21 -20 -32 -36
-25 -36 6 0 12 5 12 10 0 6 5 10 11 10 16 0 2 -82 -36 -210 -8 -30 -22 -89
-30 -130 -8 -41 -19 -93 -24 -115 -5 -22 -19 -85 -31 -140 -12 -55 -28 -127
-36 -160 -7 -33 -18 -78 -24 -100 -6 -22 -16 -65 -21 -95 -5 -30 -16 -75 -24
-100 -7 -25 -16 -65 -20 -90 -3 -25 -10 -56 -15 -70 -4 -14 -15 -59 -23 -100
-9 -41 -23 -109 -33 -151 l-16 -76 -42 4 c-54 6 -92 -22 -101 -76 -7 -44 -57
-155 -74 -165 -6 -4 -11 -12 -11 -17 0 -6 5 -7 10 -4 21 13 8 -23 -33 -89 -24
-38 -49 -72 -57 -74 -12 -4 -13 -2 -2 9 17 18 15 30 -3 23 -27 -11 -16 9 32
58 26 26 44 50 41 53 -3 3 -32 -25 -64 -63 -103 -120 -440 -486 -479 -521 -36
-31 -39 -32 -51 -16 -13 17 -14 17 -20 1 -4 -10 -2 -22 5 -29 6 -6 11 -18 11
-27 0 -12 -2 -12 -9 -2 -6 11 -19 6 -58 -22 -61 -44 -70 -45 -42 -7 12 16 19
33 15 39 -7 11 71 75 95 77 19 1 49 23 49 36 0 5 -7 6 -16 2 -29 -11 9 48 55
85 23 18 39 37 36 42 -3 4 -2 10 2 12 5 1 20 22 36 46 15 23 34 42 42 42 8 0
19 9 25 20 6 11 19 20 29 20 12 0 24 14 35 45 12 30 35 60 73 92 30 26 69 67
86 92 17 26 57 74 89 108 32 34 58 68 58 75 -1 7 -36 -24 -78 -70 -42 -45 -81
-82 -87 -83 -5 0 -26 -22 -45 -48 -19 -27 -104 -123 -189 -213 -84 -89 -252
-270 -373 -400 -199 -214 -291 -298 -328 -298 -8 0 -11 8 -8 23 14 63 143 479
184 592 26 72 68 191 94 266 27 75 58 155 69 178 23 44 26 69 23 164 -2 55 -3
58 -31 63 -21 4 -28 11 -24 21 5 11 -4 10 -35 -6 -50 -25 -70 -28 -52 -6 31
37 -37 49 -73 12 -12 -12 -33 -37 -47 -56 l-26 -33 -28 41 c-16 23 -44 50 -62
62 -44 27 -130 35 -189 19 -52 -15 -125 -75 -171 -141 -16 -24 -45 -59 -64
-79 -19 -19 -75 -89 -125 -155 -49 -66 -135 -167 -190 -225 -55 -58 -129 -142
-164 -187 -34 -45 -77 -93 -95 -107 -36 -27 -106 -59 -107 -48 -5 44 5 142 17
159 8 12 14 40 14 62 0 64 27 161 80 293 28 67 55 139 59 158 5 19 12 43 16
52 5 13 2 15 -15 11 -20 -5 -21 -4 -11 15 15 29 14 32 -11 32 -23 1 -23 1 -3
17 19 15 18 15 -15 10 -19 -4 -46 -9 -59 -13 -20 -6 -22 -4 -16 15 6 20 4 20
-22 10 -15 -5 -46 -27 -68 -48 -46 -43 -297 -162 -372 -176 -74 -14 -22 16
169 101 201 88 223 106 112 89 -32 -4 -42 -10 -37 -20 7 -20 -18 -28 -49 -16
-32 12 -94 -3 -128 -30 l-25 -21 33 6 c55 9 36 -13 -40 -49 -205 -95 -335
-152 -452 -196 -71 -27 -188 -82 -260 -123 -139 -79 -249 -130 -411 -190 -55
-21 -133 -53 -172 -71 -72 -33 -266 -84 -354 -92 -58 -6 -70 9 -74 87 -1 34 0
59 3 56 3 -3 16 26 29 65 27 82 71 171 141 287 28 46 53 96 57 111 3 16 15 37
26 47 18 16 20 16 37 0 18 -15 20 -15 35 1 16 18 37 66 37 84 0 5 -11 9 -25 9
-27 0 -32 9 -13 28 9 9 8 12 -5 12 -14 0 -15 4 -5 26 10 21 9 27 -3 35 -13 8
-74 13 -129 10 -44 -3 -143 -44 -147 -61 -2 -9 -19 -24 -38 -34 -18 -10 -52
-38 -76 -63 -43 -44 -43 -45 -11 -29 17 9 32 14 32 12 0 -19 -48 -78 -80 -100
-22 -14 -40 -31 -40 -37 0 -7 12 -4 27 7 l28 17 -16 -24 c-52 -79 -79 -129
-91 -168 -15 -50 -86 -117 -258 -244 -52 -38 -115 -85 -140 -104 -24 -18 -50
-31 -58 -28 -7 2 -40 -9 -73 -26 -35 -17 -72 -29 -87 -27 l-27 3 38 38 c20 21
37 40 37 43 0 3 -20 -7 -43 -21 -44 -25 -97 -34 -97 -15 0 11 53 40 75 40 8 0
15 7 15 16 0 8 4 12 10 9 14 -9 101 45 93 57 -3 7 -1 8 5 4 16 -10 161 90 172
118 10 27 58 59 121 81 30 11 64 37 104 79 33 34 73 69 90 77 16 8 31 22 33
33 3 12 -23 -2 -84 -48 -78 -59 -91 -66 -120 -60 -28 5 -38 1 -62 -23 -16 -16
-55 -46 -87 -68 -32 -22 -65 -50 -74 -61 -9 -12 -35 -31 -56 -42 -22 -11 -73
-45 -114 -75 -92 -68 -185 -115 -273 -137 -115 -30 -155 -4 -145 94 10 96 46
146 164 225 89 59 218 186 342 336 135 164 148 183 170 247 20 59 18 71 -16
112 -19 22 -21 31 -12 42 29 35 -78 94 -168 94 -103 -1 -225 -66 -258 -138
-10 -20 -38 -67 -62 -104 -42 -63 -47 -68 -81 -68 -20 0 -127 -11 -236 -25
-110 -14 -220 -24 -245 -24 l-46 1 55 13 c42 9 51 14 37 20 -12 5 -46 -2 -95
-20 -109 -38 -132 -40 -188 -16 -58 26 -84 48 -84 71 0 19 -34 26 -186 37
-102 7 -201 -17 -362 -87 -159 -69 -264 -131 -369 -218 -88 -74 -170 -129
-179 -120 -2 3 3 25 11 49 24 66 55 205 55 244 0 53 -17 85 -54 100 -18 8 -36
21 -39 28 -7 19 -91 12 -125 -10 -44 -27 -74 -127 -171 -574 -59 -267 -62
-275 -142 -381 -83 -110 -109 -156 -109 -198 0 -23 6 -33 26 -42 22 -10 24
-16 20 -47 -3 -20 -8 -62 -11 -95 -4 -32 -13 -76 -21 -98 -7 -21 -22 -76 -33
-122 -11 -45 -45 -172 -76 -282 -84 -299 -221 -975 -235 -1155 -5 -67 -14
-127 -20 -134 -6 -7 -8 -25 -4 -39 3 -14 1 -39 -4 -55 -6 -16 -8 -32 -4 -36 7
-7 32 71 32 103 0 13 4 21 9 18 5 -4 12 0 14 6 3 7 6 -3 7 -22 2 -32 3 -31 15
20 18 69 18 108 1 61 -16 -46 -36 -52 -36 -11 0 45 17 72 41 65 13 -4 19 -2
19 8 0 8 3 29 7 47 4 24 3 31 -5 26 -7 -4 -12 -18 -12 -32 0 -23 -14 -33 -24
-16 -2 4 5 52 17 107 l22 100 5 -60 5 -60 14 70 c8 39 15 108 16 155 2 47 4
94 5 105 l1 20 10 -20 c7 -16 8 -14 5 12 -6 35 8 93 25 103 6 4 12 42 13 86 1
44 7 88 14 99 10 18 11 18 12 -10 1 -43 60 140 60 185 0 25 -3 31 -10 20 -15
-24 -24 -2 -11 27 10 22 14 24 22 12 8 -10 9 -7 6 14 -2 15 0 30 4 33 5 3 9
25 9 49 0 26 5 45 13 48 8 3 26 56 42 121 15 64 31 116 36 116 5 0 9 7 9 15 0
9 7 29 15 45 10 20 11 30 3 32 -8 3 -7 18 3 56 9 37 17 51 27 47 10 -4 12 2 7
25 -5 22 -3 32 8 36 9 3 17 26 21 57 8 53 43 147 56 147 13 0 17 -59 5 -64 -7
-2 -22 -48 -35 -103 -13 -54 -30 -111 -38 -128 -9 -16 -16 -46 -17 -65 -4 -75
-27 -175 -55 -237 -18 -39 -30 -83 -30 -107 0 -23 -5 -47 -11 -53 -12 -12 -21
-54 -20 -96 0 -22 -3 -27 -15 -23 -13 5 -14 0 -9 -27 4 -21 3 -27 -3 -19 -7
11 -10 9 -15 -7 -3 -14 0 -21 10 -21 23 0 9 -25 -15 -28 -26 -4 -28 -20 -6
-36 13 -10 13 -16 3 -38 -7 -17 -17 -24 -26 -21 -13 5 -13 2 1 -19 16 -25 12
-63 -5 -52 -5 3 -6 10 -3 16 4 7 2 8 -4 4 -6 -3 -14 -28 -17 -54 -3 -26 -8
-59 -10 -75 -4 -26 -3 -27 18 -16 13 8 17 14 9 17 -17 5 -15 22 3 22 8 0 15 7
15 15 0 8 -4 15 -10 15 -5 0 -10 7 -10 15 0 18 20 20 21 3 1 -23 40 116 59
212 10 52 27 124 38 160 48 162 94 301 98 298 2 -2 -12 -64 -31 -136 -19 -73
-34 -147 -34 -164 1 -30 2 -29 11 12 5 25 46 157 90 293 46 144 78 259 75 273
-2 13 2 29 9 35 8 6 14 19 14 28 0 9 9 45 20 79 11 35 20 81 20 102 0 22 5 40
13 43 10 4 9 7 0 18 -18 18 -16 32 2 25 8 -3 15 -1 15 4 0 6 -6 10 -12 10 -7
0 -4 7 7 16 11 8 19 23 17 32 -2 17 35 48 45 38 3 -3 -20 -76 -51 -163 -53
-150 -66 -203 -48 -203 7 0 62 174 62 200 0 8 11 39 25 68 14 30 25 63 25 73
0 10 5 19 10 19 6 0 10 18 10 40 0 37 8 48 118 162 231 243 355 351 522 460
219 143 399 211 514 194 90 -14 64 -37 -173 -155 -256 -126 -448 -263 -657
-468 l-110 -108 -38 -104 c-32 -90 -37 -110 -31 -155 17 -123 172 -185 349
-140 159 41 546 266 546 319 0 6 21 23 48 38 161 88 325 329 352 518 6 41 16
80 24 87 34 34 280 95 433 108 45 4 80 10 78 14 -3 5 2 11 11 14 13 5 11 -2
-7 -31 -12 -21 -42 -76 -67 -123 -55 -106 -53 -104 -102 -120 -56 -19 -66 -41
-34 -71 28 -26 28 -45 0 -147 -17 -60 -12 -137 13 -187 17 -35 155 -185 170
-185 4 0 25 -13 46 -30 58 -46 103 -54 178 -34 92 26 213 84 296 143 60 43
397 311 464 369 29 25 29 8 2 -69 -14 -40 -25 -89 -25 -108 0 -49 50 -161 71
-161 17 0 29 -11 90 -83 62 -73 164 -107 322 -107 186 0 473 99 697 240 41 26
100 61 130 78 44 26 50 32 30 31 -14 0 -36 -6 -50 -14 -36 -20 -46 -18 -25 5
17 19 17 20 0 26 -16 6 -15 9 6 25 13 10 18 19 12 19 -7 0 -13 6 -13 14 0 18
49 58 61 50 5 -3 25 8 45 25 19 17 39 31 44 31 4 0 17 3 27 7 35 12 -39 -56
-94 -87 -76 -43 -65 -46 17 -5 38 19 76 35 83 35 19 0 84 35 140 74 26 19 73
44 105 55 80 29 127 55 125 69 -2 7 8 12 21 12 27 0 44 16 24 22 -12 4 98 73
158 100 16 7 74 40 129 74 55 33 112 64 128 68 l27 7 -15 -38 c-9 -20 -13 -43
-10 -50 2 -8 1 -12 -4 -9 -10 7 -72 -174 -105 -309 -34 -139 -47 -218 -48
-302 l-1 -71 49 -49 c56 -56 94 -73 169 -73 167 0 314 103 503 352 l67 88 7
-52 c4 -29 5 -61 2 -70 -4 -12 -1 -16 8 -13 7 3 42 -20 78 -50 75 -64 90 -67
187 -28 53 21 82 41 131 91 34 35 62 59 62 52 0 -6 -30 -100 -66 -208 -103
-310 -109 -372 -44 -467 62 -90 131 -128 231 -127 70 0 117 17 155 56 30 31
69 57 142 96 56 30 85 57 189 175 67 77 120 146 118 153 -3 6 2 12 10 12 8 0
22 14 30 31 9 16 52 70 95 119 43 50 81 99 85 110 3 11 12 20 19 20 14 0 64
52 91 95 10 16 38 53 62 83 24 29 50 68 58 87 19 47 29 44 22 -7 l-6 -41 26
25 c14 14 33 50 43 79 10 30 20 52 23 49 7 -9 37 22 37 37 0 12 -3 13 -13 5
-7 -6 -18 -7 -25 -3 -9 5 -4 19 18 49 32 44 60 53 92 28 16 -12 16 -18 4 -72
-8 -32 -19 -84 -25 -114 -13 -61 -37 -174 -51 -235 -21 -91 -53 -252 -80 -408
-5 -26 -13 -62 -19 -80 -6 -17 -17 -70 -25 -117 -9 -47 -27 -142 -41 -211 -14
-69 -25 -139 -25 -154 0 -16 -4 -42 -10 -59 -9 -30 -23 -124 -56 -376 -8 -63
-19 -124 -24 -135 -9 -20 -14 -55 -26 -185 -4 -36 -10 -69 -14 -75 -5 -5 -11
-57 -15 -115 -4 -58 -11 -109 -15 -115 -4 -5 -13 -57 -20 -115 -7 -58 -16
-109 -20 -115 -4 -5 -10 -41 -14 -80 -4 -38 -11 -87 -17 -107 -5 -20 -16 -79
-24 -130 -8 -51 -19 -115 -24 -143 -22 -105 -22 -105 -2 -105 12 0 22 13 31
43 7 23 20 48 29 54 10 9 11 13 2 13 -9 0 -11 9 -6 31 5 22 3 34 -6 40 -11 6
-11 18 -1 61 7 29 14 76 17 103 5 50 19 129 35 195 5 19 11 55 15 80 8 64 25
166 36 225 5 28 11 82 15 120 8 98 9 109 18 123 3 6 6 26 6 44 0 37 18 156 56
361 14 75 23 140 21 145 -3 4 4 57 14 117 10 61 21 130 24 155 3 25 9 61 14
80 5 19 17 76 25 125 37 206 43 224 64 211 7 -4 6 -16 -3 -33 -11 -21 -12 -29
-2 -35 8 -5 8 -8 1 -8 -7 0 -14 -12 -17 -27 -3 -16 -9 -39 -13 -52 -5 -17 -4
-22 4 -17 15 9 15 1 0 -24 -14 -21 -6 -36 12 -25 8 5 10 22 7 46 -3 27 -1 39
9 43 8 3 14 18 14 34 0 16 7 51 15 78 17 58 19 74 5 74 -5 0 -10 -7 -10 -15 0
-8 -9 -15 -20 -15 -21 0 -27 15 -10 25 6 4 8 9 6 13 -2 4 0 27 5 52 28 137 43
212 54 270 7 36 14 67 15 70 1 3 2 9 1 13 -1 5 6 24 15 42 9 19 13 42 10 51
-7 18 10 54 25 54 6 0 7 -4 4 -10 -3 -5 -8 -22 -10 -37 -15 -111 -25 -162 -34
-187 -10 -26 -19 -68 -25 -121 -2 -11 -5 -27 -8 -35 -30 -77 -38 -155 -15
-148 6 3 14 18 15 34 2 16 7 34 12 39 5 6 11 35 14 66 6 54 21 132 46 234 31
129 39 165 50 230 6 39 15 86 20 105 4 19 13 68 19 108 6 41 17 83 24 95 6 12
12 36 13 52 1 44 42 227 52 234 4 3 9 20 10 36 1 17 7 55 13 85 6 30 11 72 11
93 0 20 4 37 9 37 5 0 9 -4 9 -10 0 -5 3 -10 8 -10 4 0 7 13 7 29 0 16 -4 27
-8 24 -5 -3 -7 3 -5 13 2 11 10 19 18 20 29 2 31 4 12 25 -17 17 -18 27 -10
62 5 23 13 44 19 45 5 2 9 12 9 22 0 10 7 17 16 16 9 0 19 4 21 11 3 7 -3 9
-16 6 -15 -4 -21 -1 -21 11 0 10 5 14 10 11 6 -3 10 1 10 10 0 8 7 18 15 21
10 4 15 19 14 43 -1 30 -2 32 -8 12 -4 -14 -13 -27 -20 -29 -8 -3 -11 -1 -8 4
3 5 10 28 16 51 9 34 15 40 31 36 15 -4 20 0 20 16 0 14 -4 20 -11 15 -12 -7
-4 27 12 56 6 11 9 9 10 -10 0 -14 9 11 20 55 33 138 32 132 15 132 -9 0 -16
-6 -16 -14 0 -7 5 -13 10 -13 7 0 7 -6 2 -17 -5 -10 -13 -36 -17 -58 l-8 -40
-11 50 -12 50 -12 -34 c-15 -41 -16 -105 -2 -96 6 3 10 1 10 -4 0 -6 -6 -11
-13 -11 -14 0 -50 -121 -68 -223 -4 -26 -13 -62 -18 -80 -19 -57 -51 -218 -51
-251 0 -18 -3 -36 -7 -40 -4 -3 -8 -14 -9 -24 -2 -9 -8 -35 -13 -57 -31 -117
-53 -223 -53 -247 0 -16 -3 -28 -7 -28 -17 0 -20 61 -7 107 26 88 36 130 36
150 0 11 9 46 20 79 10 33 21 80 23 104 3 25 7 52 11 60 3 8 13 47 21 85 33
152 45 201 56 235 6 19 15 53 19 75 5 22 16 72 25 110 9 39 25 113 35 165 33
169 51 245 61 254 14 15 11 -9 -17 -139 -14 -66 -28 -136 -30 -155 l-5 -35 14
31 c8 17 26 39 40 50 25 19 51 94 28 80 -6 -4 -11 -12 -11 -17 0 -6 -6 -17
-14 -25 -19 -18 -30 -1 -16 25 5 11 10 33 10 49 0 35 19 92 30 92 5 0 12 -5
16 -11 8 -14 24 8 24 35 0 14 -5 17 -21 13 -13 -3 -19 -1 -16 6 5 17 55 21 73
6 13 -10 13 -15 0 -34 -9 -14 -11 -26 -5 -32 6 -6 0 -26 -16 -56 -23 -40 -25
-49 -13 -69 12 -22 13 -20 16 25 2 31 8 47 16 47 9 0 16 20 21 53 9 63 9 64
31 157 10 41 21 76 24 78 4 1 5 14 2 27 -2 15 0 25 7 25 6 0 11 16 11 35 0 19
5 35 10 35 19 0 16 -35 -8 -109 -12 -39 -14 -55 -6 -58 7 -2 10 -13 7 -24 -3
-12 -11 -18 -19 -15 -10 4 -14 -5 -14 -33 0 -21 -9 -64 -20 -97 -11 -32 -19
-66 -17 -74 3 -11 6 -10 11 5 4 11 11 27 15 35 5 9 12 35 16 58 4 23 9 42 12
42 3 0 13 -10 23 -22 l18 -23 7 30 c3 17 12 54 20 84 16 61 12 76 -16 61 -28
-15 -33 6 -15 58 21 58 33 167 17 158 -6 -4 -11 -21 -11 -38 0 -26 -2 -29 -15
-18 -11 10 -18 9 -30 -4 -9 -9 -14 -20 -10 -26 7 -12 -13 -131 -25 -145 -5 -6
-9 -20 -9 -30 -1 -47 -6 -58 -28 -68 -28 -13 -38 -5 -25 20 14 26 30 82 37
128 4 22 9 52 11 66 4 20 0 28 -15 32 -12 3 -21 10 -21 16 0 6 6 8 14 5 8 -3
17 -1 20 5 4 6 14 7 22 4 12 -5 15 -1 11 13 -5 15 4 24 36 40 41 20 48 20 86
-4 3 -1 -4 -8 -14 -16 -18 -13 -17 -13 6 -12 14 1 23 7 21 15 -1 7 4 24 12 36
8 13 13 33 11 46 -3 13 0 26 7 30 6 4 17 24 24 44 8 25 9 34 1 26 -22 -22 -28
-11 -10 19 12 21 14 33 6 41 -7 7 -12 2 -17 -18 -11 -46 -28 -83 -38 -83 -5 0
-6 9 -3 21 4 11 8 38 10 61 1 22 7 43 11 47 5 3 10 17 11 31 9 121 17 169 26
163 6 -4 8 0 4 11 -4 9 -3 24 2 34 15 26 36 144 33 175 -2 19 1 27 13 27 9 0
14 3 12 8 -3 4 2 39 10 77 8 39 15 77 17 85 2 8 7 33 11 55 5 22 9 45 10 50 1
6 4 17 7 25 19 48 34 147 26 163 -7 14 -5 22 8 31 11 8 13 15 6 19 -14 9 -3
47 14 47 16 0 18 -21 4 -70 -5 -19 -11 -61 -14 -92 -2 -32 -12 -72 -20 -89 -9
-18 -16 -44 -16 -59 0 -14 -6 -32 -12 -38 -10 -10 -10 -15 1 -21 12 -8 11 -17
-3 -58 -10 -26 -19 -59 -21 -73 -1 -14 -4 -26 -5 -27 -1 -2 -3 -6 -5 -10 -1
-5 -4 -15 -8 -23 -7 -18 -14 -58 -27 -160 -13 -96 -14 -99 -29 -135 -7 -16
-15 -56 -18 -87 -5 -46 -2 -60 12 -75 18 -17 18 -16 12 19 -3 22 -1 40 4 44 6
3 8 18 4 32 -4 15 -1 28 5 32 7 4 13 36 16 71 4 72 38 214 56 236 9 11 9 16
-1 23 -8 4 -10 13 -6 21 9 13 16 44 41 178 8 46 22 102 29 126 8 23 12 58 10
78 -3 21 -1 37 5 37 6 0 10 12 10 28 1 15 9 66 19 115 11 57 14 87 7 87 -6 0
-4 5 4 10 8 5 16 22 17 37 8 92 21 162 37 191 13 25 15 37 6 47 -12 14 -6 84
8 95 4 3 8 25 9 50 0 25 6 77 13 115 6 39 13 93 14 120 4 58 22 183 35 238 8
32 5 45 -21 92 -16 30 -33 57 -38 60 -4 3 -6 14 -3 25 4 14 0 20 -11 20 -9 0
-16 4 -16 8 0 4 -15 6 -34 4 -28 -3 -34 -1 -33 15 2 12 -6 19 -23 20 -22 3
-29 -5 -52 -54z m42 -793 c0 -5 -9 -10 -19 -10 -11 0 -23 5 -26 10 -4 6 5 10
19 10 14 0 26 -4 26 -10z m-15 -42 c-3 -13 -8 -35 -9 -51 -4 -41 -13 -42 -20
-3 -7 37 6 76 26 76 6 0 8 -9 3 -22z m-23 -130 c-15 -15 -26 -4 -18 18 5 13 9
15 18 6 9 -9 9 -15 0 -24z m-49 -25 c2 -5 -2 -55 -9 -113 -14 -113 -16 -149
-5 -111 9 33 36 42 28 10 -15 -63 -25 -93 -26 -81 -2 20 -31 14 -31 -7 0 -11
-4 -22 -9 -25 -4 -3 -11 -34 -15 -68 -19 -178 -25 -208 -45 -208 -9 0 -9 92
-1 100 3 3 13 48 23 100 9 52 26 136 37 185 11 50 23 120 27 158 5 60 14 81
26 60z m37 -23 c0 -20 -5 -30 -15 -30 -18 0 -18 1 -5 34 13 34 20 33 20 -4z
m39 -17 c-7 -10 -15 -20 -16 -22 -2 -2 -3 5 -3 17 0 14 6 22 16 22 14 0 15 -3
3 -17z m-53 -109 c-4 -13 -11 -24 -17 -24 -11 0 -4 64 9 85 10 14 15 -32 8
-61z m44 49 c0 -22 -17 -50 -25 -42 -6 7 11 59 20 59 3 0 5 -8 5 -17z m36 -89
c-10 -26 -26 -4 -20 24 4 15 10 32 13 37 8 13 14 -42 7 -61z m-58 -26 c-2 -24
-7 -41 -13 -39 -5 1 -8 8 -6 15 3 6 4 23 3 39 -1 15 3 27 9 27 6 0 9 -18 7
-42z m-53 -115 c-4 -10 -9 -38 -11 -63 -6 -60 -11 -70 -28 -70 -12 0 -14 8 -9
33 3 17 10 36 14 42 5 5 9 24 9 42 0 24 5 33 16 33 11 0 14 -5 9 -17z m29 -52
c-4 -17 -11 -31 -16 -31 -6 0 -8 13 -4 31 3 17 6 39 6 48 1 15 1 15 10 -1 6
-9 7 -30 4 -47z m-18 -76 c0 -27 -4 -35 -20 -37 -14 -2 -22 -12 -24 -30 -4
-33 -18 -37 -27 -8 -10 31 4 63 25 57 14 -4 20 2 25 24 9 40 21 36 21 -6z
m-13 -103 c3 -4 -3 -23 -14 -42 -19 -37 -23 -32 -13 19 6 30 18 40 27 23z
m-43 -30 c0 -9 -7 -49 -15 -87 -8 -39 -15 -89 -15 -113 0 -26 -4 -41 -10 -37
-5 3 -10 -3 -10 -14 0 -12 5 -21 10 -21 6 0 10 -7 10 -15 0 -9 -6 -12 -15 -9
-8 4 -15 1 -15 -5 0 -6 5 -11 10 -11 6 0 10 -11 10 -25 0 -14 -3 -25 -7 -25
-5 0 -17 -18 -27 -40 -15 -30 -17 -43 -8 -52 8 -8 7 -14 -4 -23 -9 -6 -18 -33
-21 -60 l-6 -48 -17 33 c-16 31 -18 32 -28 14 -10 -17 -11 -17 -12 8 0 15 6
33 14 40 11 12 46 111 46 132 0 3 -9 6 -20 6 -14 0 -20 7 -20 21 0 18 4 20 25
15 21 -5 25 -3 25 16 0 18 -2 20 -10 8 -5 -8 -11 -12 -14 -9 -7 7 13 118 25
142 7 13 5 17 -8 17 -14 0 -14 3 4 23 12 12 23 36 25 52 2 24 7 30 25 28 17
-2 23 4 28 27 7 32 25 41 25 12z m10 -127 c0 -8 -4 -15 -10 -15 -5 0 -10 7
-10 15 0 8 5 15 10 15 6 0 10 -7 10 -15z m-23 -62 c-3 -10 -5 -4 -5 12 0 17 2
24 5 18 2 -7 2 -21 0 -30z m-137 -68 c0 -14 -4 -25 -10 -25 -5 0 -10 11 -10
25 0 14 5 25 10 25 6 0 10 -11 10 -25z m-24 -102 c-10 -10 -19 5 -10 18 6 11
8 11 12 0 2 -7 1 -15 -2 -18z m-6 -42 c0 -6 -4 -13 -10 -16 -5 -3 -10 1 -10 9
0 9 5 16 10 16 6 0 10 -4 10 -9z m-29 -104 c-8 -8 -11 -5 -11 9 0 27 14 41 18
19 2 -9 -1 -22 -7 -28z m-14 -64 c-3 -10 -5 -4 -5 12 0 17 2 24 5 18 2 -7 2
-21 0 -30z m148 8 c-3 -6 -11 -11 -17 -11 -6 0 -6 6 2 15 14 17 26 13 15 -4z
m-99 -5 c3 -8 13 -12 23 -9 23 6 33 -19 21 -52 -6 -16 -6 -27 1 -31 15 -9 -3
-25 -32 -29 -68 -11 -64 -12 -60 24 1 19 7 44 11 55 7 17 9 14 9 -17 1 -49 25
-45 28 4 l1 34 -7 -30 c-7 -28 -8 -27 -12 18 -4 45 5 63 17 33z m-60 -63 c-11
-11 -19 6 -11 24 8 17 8 17 12 0 3 -10 2 -21 -1 -24z m124 -97 c0 -19 -9 -44
-20 -57 l-20 -24 6 40 c7 40 20 75 29 75 3 0 5 -15 5 -34z m-57 0 c10 3 17 1
17 -6 0 -21 -23 -105 -32 -117 -12 -15 -36 -6 -41 15 -3 11 -5 9 -6 -6 -1 -31
-26 -23 -26 8 0 20 7 26 37 33 32 8 36 12 28 27 -5 9 -6 20 -3 24 3 3 -1 6
-10 6 -9 0 -17 4 -17 9 0 13 24 20 31 9 3 -5 13 -6 22 -2z m-124 -182 c-17
-44 -24 -10 -8 40 12 36 14 38 17 15 2 -14 -2 -38 -9 -55z m36 27 c3 -5 1 -12
-5 -16 -5 -3 -10 1 -10 9 0 18 6 21 15 7z m-59 -118 c-10 -10 -19 5 -10 18 6
11 8 11 12 0 2 -7 1 -15 -2 -18z m38 6 c-8 -14 -24 -10 -24 6 0 9 6 12 15 9 8
-4 12 -10 9 -15z m-6 -41 c17 -17 15 -31 -3 -24 -8 3 -15 1 -15 -4 0 -6 5 -10
12 -10 9 0 9 -3 1 -11 -14 -14 -33 -3 -34 19 0 11 -5 6 -13 -12 -7 -16 -16
-25 -19 -19 -8 13 17 59 31 56 7 -2 12 2 12 7 0 14 13 13 28 -2z m-37 -98 c0
-10 3 -9 9 5 7 17 9 15 9 -12 1 -30 -23 -73 -41 -73 -4 0 -5 17 -2 38 4 35 4
35 -11 -10 -22 -67 -34 -60 -17 10 11 45 18 58 33 58 10 0 19 -7 20 -16z m150
-63 c-8 -8 -11 -4 -11 14 0 33 14 47 18 19 2 -12 -1 -27 -7 -33z m-5737 -1303
c18 -26 18 -26 -2 -20 -15 5 -24 1 -33 -16 -11 -20 -11 -22 3 -10 11 9 18 10
23 2 11 -18 -46 -107 -120 -188 -39 -42 -87 -100 -107 -127 -20 -28 -49 -57
-65 -65 -15 -8 -32 -19 -36 -25 -5 -5 -5 1 -2 15 8 27 20 43 105 135 31 33 66
76 79 95 l23 35 -29 -31 c-52 -57 -156 -149 -145 -129 6 11 48 65 94 120 46
55 105 131 132 168 28 37 52 67 55 67 3 0 14 -12 25 -26z m-254 8 c0 -13 -12
-22 -22 -16 -10 6 -1 24 13 24 5 0 9 -4 9 -8z m311 -68 c-13 -49 -37 -84 -58
-84 -10 0 -13 -6 -9 -16 4 -10 -3 -23 -19 -36 -14 -11 -45 -50 -69 -88 -25
-38 -54 -74 -66 -80 -21 -11 -21 -11 -5 19 8 17 56 85 105 150 50 66 90 123
90 128 0 13 31 55 37 50 2 -3 0 -22 -6 -43z m-361 21 c-7 -8 -20 -15 -29 -15
-13 1 -13 3 3 15 26 19 42 19 26 0z m-50 -85 c-12 -16 -18 -30 -13 -31 4 0 -5
-5 -21 -10 -39 -11 -45 -4 -18 24 11 12 31 33 43 46 30 33 37 10 9 -29z m192
8 c-7 -7 -12 -8 -12 -2 0 14 12 26 19 19 2 -3 -1 -11 -7 -17z m5285 -54 c-3
-3 -12 -4 -19 -1 -8 3 -5 6 6 6 11 1 17 -2 13 -5z m-6688 -18 c-6 -6 -256
-106 -264 -106 -4 0 -16 -11 -27 -25 -11 -14 -52 -44 -91 -67 -86 -50 -161
-101 -202 -137 -64 -57 -112 -89 -143 -96 -18 -3 -32 -12 -32 -19 0 -17 -35
-48 -43 -39 -4 3 -7 -3 -7 -15 0 -24 -16 -30 -23 -9 -3 9 -7 9 -20 -2 -20 -16
-22 -3 -4 20 40 51 256 224 407 326 147 99 320 172 409 173 24 0 42 -2 40 -4z
m971 -11 c-10 -13 -9 -15 9 -15 11 0 21 -4 21 -10 0 -6 -34 -10 -82 -10 -124
0 -206 -17 -225 -47 -11 -17 -19 -21 -26 -14 -17 17 -52 13 -129 -14 -105 -37
-157 -30 -115 14 10 11 9 13 -5 8 -10 -4 -18 -3 -18 2 0 17 53 43 118 56 87
19 119 18 72 -1 l-35 -14 50 5 c28 3 97 10 155 16 58 5 109 15 115 21 7 7 4 9
-10 5 -43 -12 -210 -19 -200 -9 15 16 48 19 189 21 113 1 127 -1 116 -14z
m5676 -32 c-11 -20 -15 -23 -16 -10 0 21 24 61 28 48 2 -6 -4 -22 -12 -38z
m60 38 c40 33 18 -28 -31 -86 -31 -37 -33 -15 -3 33 15 25 18 37 10 40 -7 2
-9 9 -5 15 5 8 8 7 11 -1 3 -10 7 -10 18 -1z m-5536 -11 c0 -5 -9 -10 -20 -10
-12 0 -26 -12 -36 -32 -9 -18 -32 -55 -51 -81 -20 -29 -32 -55 -28 -66 3 -9
-3 -26 -13 -37 -10 -10 -16 -26 -14 -35 1 -9 -16 -33 -40 -55 -41 -37 -43 -37
-46 -16 -2 13 10 43 27 70 17 26 39 63 48 82 10 19 39 64 65 99 27 35 48 68
48 72 0 4 12 10 28 12 15 2 28 5 30 6 1 0 2 -3 2 -9z m5594 -58 c-7 -26 -15
-64 -19 -84 -4 -25 -11 -38 -22 -38 -17 0 -17 2 12 110 20 77 25 86 35 70 4
-6 2 -33 -6 -58z m-2704 38 c12 -8 12 -10 -3 -16 -9 -3 -25 -3 -34 0 -15 6
-15 8 -3 16 8 6 17 10 20 10 3 0 12 -4 20 -10z m1265 -32 c25 -12 45 -26 45
-31 0 -17 -25 -55 -128 -192 -139 -186 -180 -222 -168 -144 13 81 143 357 180
381 16 11 21 10 71 -14z m-4445 -18 c0 -5 -4 -10 -10 -10 -5 0 -10 5 -10 10 0
6 5 10 10 10 6 0 10 -4 10 -10z m4090 2 c0 -5 -7 -17 -15 -28 -14 -18 -14 -17
-4 9 12 27 19 34 19 19z m-4165 -12 c3 -5 -3 -10 -14 -10 -12 0 -21 5 -21 10
0 6 6 10 14 10 8 0 18 -4 21 -10z m-80 -10 c3 -5 -1 -10 -10 -10 -9 0 -13 5
-10 10 3 6 8 10 10 10 2 0 7 -4 10 -10z m-105 -18 c0 -9 -44 -32 -60 -32 -18
0 -10 17 13 28 27 13 47 15 47 4z m-124 -44 c-9 -5 -21 -6 -28 -2 -8 5 -5 10
8 14 25 10 41 0 20 -12z m-320 -24 c-18 -12 -18 -14 -3 -14 26 0 31 -24 13
-59 -17 -32 -48 -52 -119 -77 -46 -16 -194 -99 -282 -158 -86 -57 -235 -185
-245 -210 -10 -25 -120 -135 -120 -120 0 5 5 15 12 22 7 7 8 12 2 12 -6 0 -19
-9 -29 -20 -24 -27 -30 -18 -11 18 40 77 422 391 459 377 7 -3 20 1 27 10 11
13 10 14 -4 9 -9 -3 -16 -2 -16 3 0 15 31 39 90 68 52 26 153 88 175 107 6 5
-33 -10 -85 -33 -52 -23 -109 -54 -125 -70 -17 -16 -52 -35 -78 -43 -27 -8
-59 -27 -73 -41 -14 -15 -28 -24 -31 -21 -10 10 47 64 117 111 68 45 257 143
300 155 34 10 51 -7 26 -26z m5233 -36 c-11 -19 -14 -20 -17 -6 -2 9 2 27 9
40 11 19 14 20 17 6 2 -9 -2 -27 -9 -40z m-1611 24 c2 -7 -3 -12 -12 -12 -9 0
-16 7 -16 16 0 17 22 14 28 -4z m112 8 c0 -5 -5 -10 -11 -10 -5 0 -7 5 -4 10
3 6 8 10 11 10 2 0 4 -4 4 -10z m1010 -3 c0 -2 -22 -32 -50 -68 -58 -74 -65
-95 -15 -41 l35 37 -17 -50 c-18 -56 -30 -74 -113 -162 -59 -64 -92 -83 -69
-42 9 17 8 20 -2 14 -26 -16 0 23 112 168 103 134 119 154 119 144z m-4580
-11 c0 -3 -4 -8 -10 -11 -5 -3 -10 -1 -10 4 0 6 5 11 10 11 6 0 10 -2 10 -4z
m6394 -21 c3 -8 2 -15 -2 -15 -13 0 -32 -63 -32 -106 0 -52 -10 -86 -24 -81
-19 7 1 148 24 171 6 6 10 18 10 28 0 22 16 24 24 3z m-3039 -75 c3 -5 1 -10
-4 -10 -6 0 -11 5 -11 10 0 6 2 10 4 10 3 0 8 -4 11 -10z m-3555 -52 c0 -48
-202 -258 -368 -382 -83 -63 -362 -216 -362 -199 1 12 155 180 235 254 124
116 198 173 310 238 61 35 124 72 140 82 35 22 45 23 45 7z m3466 -26 c-8 -9
-19 -13 -22 -9 -10 9 16 38 28 31 6 -4 4 -13 -6 -22z m2805 8 c6 0 7 -4 4 -10
-3 -5 -13 -10 -21 -10 -8 0 -13 4 -10 9 4 5 3 11 -1 14 -5 2 -2 2 5 0 8 -1 18
-3 23 -3z m-2911 -46 c0 -14 -3 -14 -15 -4 -8 7 -15 14 -15 16 0 2 7 4 15 4 8
0 15 -7 15 -16z m2859 7 c12 -8 10 -17 -14 -53 -69 -105 -205 -252 -205 -221
0 4 47 66 104 138 71 88 101 132 93 137 -7 4 -7 8 -2 8 6 0 16 -4 24 -9z
m-2902 -38 c-9 -9 -20 -13 -24 -9 -4 4 1 14 11 22 25 18 35 8 13 -13z m2843
-8 c-7 -9 -15 -13 -18 -10 -3 2 1 11 8 20 7 9 15 13 18 10 3 -2 -1 -11 -8 -20z
m-3040 11 c0 -3 -4 -8 -10 -11 -5 -3 -10 -1 -10 4 0 6 5 11 10 11 6 0 10 -2
10 -4z m160 -5 c0 -10 -30 -24 -37 -17 -3 3 -2 9 2 15 8 13 35 15 35 2z
m-3764 -39 c-23 -23 -33 -6 -10 19 12 13 20 16 22 9 3 -7 -3 -19 -12 -28z
m2014 13 c-7 -9 -15 -13 -17 -11 -7 7 7 26 19 26 6 0 6 -6 -2 -15z m-1495 -21
c-1 -14 -14 -38 -29 -53 -14 -15 -26 -32 -26 -38 0 -19 -18 -25 -41 -12 -14 7
-19 7 -15 0 4 -6 -1 -22 -10 -36 -13 -20 -14 -25 -3 -23 8 2 14 -4 14 -12 0
-8 -8 -16 -17 -18 -10 -2 -18 2 -18 8 0 6 -23 -7 -51 -29 -50 -39 -69 -49 -69
-34 0 4 28 35 63 69 34 35 91 94 126 133 36 39 68 71 72 71 4 0 6 -12 4 -26z
m-674 -35 c-35 -28 -51 -22 -17 7 15 14 31 22 35 19 3 -4 -5 -15 -18 -26z
m5884 -9 c3 -5 1 -10 -4 -10 -6 0 -11 5 -11 10 0 6 2 10 4 10 3 0 8 -4 11 -10z
m835 -15 c-7 -9 -15 -13 -18 -10 -3 2 1 11 8 20 7 9 15 13 18 10 3 -2 -1 -11
-8 -20z m-5369 -32 c-13 -28 -13 -28 -24 -6 -7 16 -6 27 3 38 21 25 36 1 21
-32z m-1311 14 c0 -7 -7 -22 -15 -33 -14 -18 -14 -18 -15 7 0 14 3 29 7 32 11
11 23 8 23 -6z m5824 -14 c-9 -45 -13 -53 -22 -53 -5 0 -4 18 1 40 12 45 31
56 21 13z m-6275 -14 c-16 -10 -23 -4 -14 10 3 6 11 8 17 5 6 -4 5 -9 -3 -15z
m6301 11 c0 -5 -4 -10 -10 -10 -5 0 -10 5 -10 10 0 6 5 10 10 10 6 0 10 -4 10
-10z m-5923 -32 c-3 -7 -5 -2 -5 12 0 14 2 19 5 13 2 -7 2 -19 0 -25z m3623
-53 c-18 -22 -50 -19 -50 5 0 22 15 27 24 8 4 -10 9 -8 18 5 7 9 15 12 16 7 2
-6 -2 -17 -8 -25z m2317 -12 c-3 -10 -5 -4 -5 12 0 17 2 24 5 18 2 -7 2 -21 0
-30z m-77 -24 c-6 -24 -20 -55 -30 -69 -18 -23 -20 -23 -20 -5 0 24 48 130 56
123 3 -3 0 -25 -6 -49z m-5340 -54 c-21 -25 -31 -6 -12 23 14 21 17 23 20 9 2
-10 -2 -24 -8 -32z m6085 25 c3 -5 -1 -10 -9 -10 -9 0 -16 5 -16 10 0 6 4 10
9 10 6 0 13 -4 16 -10z m-6175 -29 c0 -20 -224 -190 -235 -179 -9 9 35 67 47
63 13 -5 87 46 142 98 30 28 46 34 46 18z m2630 5 c0 -3 -4 -8 -10 -11 -5 -3
-10 -1 -10 4 0 6 5 11 10 11 6 0 10 -2 10 -4z m2830 -6 c0 -5 -5 -10 -11 -10
-5 0 -7 5 -4 10 3 6 8 10 11 10 2 0 4 -4 4 -10z m-5410 -20 c0 -5 -4 -10 -10
-10 -5 0 -10 5 -10 10 0 6 5 10 10 10 6 0 10 -4 10 -10z m1250 -15 c0 -8 -7
-15 -15 -15 -26 0 -18 20 13 29 1 1 2 -6 2 -14z m50 2 c0 -14 -19 -37 -31 -37
-4 0 -2 11 4 25 13 27 27 33 27 12z m4770 -22 c-7 -9 -15 -13 -17 -11 -7 7 7
26 19 26 6 0 6 -6 -2 -15z m-6150 -27 c-24 -18 -57 -45 -73 -60 -31 -30 -37
-33 -37 -18 0 14 119 110 137 110 10 0 -2 -14 -27 -32z m1280 28 c0 -3 -4 -8
-10 -11 -5 -3 -10 -1 -10 4 0 6 5 11 10 11 6 0 10 -2 10 -4z m310 -16 c0 -5
-5 -10 -11 -10 -5 0 -7 5 -4 10 3 6 8 10 11 10 2 0 4 -4 4 -10z m3830 0 c0 -5
-4 -10 -10 -10 -5 0 -10 5 -10 10 0 6 5 10 10 10 6 0 10 -4 10 -10z m80 -12
c0 -7 -16 -64 -35 -127 -19 -62 -35 -131 -35 -151 0 -54 -9 -74 -26 -59 -10 8
-11 16 -4 29 18 34 60 224 60 273 0 40 3 47 20 47 11 0 20 -6 20 -12z m-6404
-25 c-10 -10 -19 5 -10 18 6 11 8 11 12 0 2 -7 1 -15 -2 -18z m6450 -48 c-9
-20 -23 -76 -32 -123 -16 -88 -37 -152 -50 -152 -11 0 4 101 18 117 9 11 9 16
0 22 -9 5 -5 21 13 57 14 27 25 55 25 62 0 21 33 78 37 65 2 -6 -3 -28 -11
-48z m469 35 c-3 -5 -11 -10 -16 -10 -6 0 -7 5 -4 10 3 6 11 10 16 10 6 0 7
-4 4 -10z m-503 -22 c-7 -7 -12 -8 -12 -2 0 14 12 26 19 19 2 -3 -1 -11 -7
-17z m-5802 3 c0 -5 -13 -19 -30 -31 -35 -25 -181 -92 -187 -86 -7 7 21 46 33
46 5 0 46 18 89 40 82 42 95 46 95 31z m5710 -5 c0 -3 -4 -8 -10 -11 -5 -3
-10 -1 -10 4 0 6 5 11 10 11 6 0 10 -2 10 -4z m550 -25 c0 -12 -42 -42 -49
-36 -5 6 29 45 41 45 4 0 8 -4 8 -9z m-6131 -27 c-19 -23 -99 -74 -117 -74
-22 0 -3 20 61 61 61 39 82 44 56 13z m5556 -37 c-8 -20 -15 -51 -15 -69 0
-44 -10 -78 -23 -78 -15 0 -1 93 23 147 24 54 38 54 15 0z m-5729 -33 c-15
-14 -41 -27 -56 -31 -16 -3 -27 -10 -26 -17 2 -6 1 -8 -1 -3 -3 4 -11 7 -18 7
-8 0 -17 5 -20 10 -8 13 91 60 125 60 l25 -1 -29 -25z m-730 -165 c-14 -32
-14 -33 -15 -8 -1 14 5 41 11 60 13 33 13 33 16 8 2 -15 -4 -42 -12 -60z m-56
-209 c0 -5 -4 -10 -10 -10 -5 0 -10 5 -10 10 0 6 5 10 10 10 6 0 10 -4 10 -10z
m-40 -125 c0 -8 -4 -15 -9 -15 -13 0 -22 16 -14 24 11 11 23 6 23 -9z m-135
-54 c-3 -12 -11 -19 -16 -16 -5 4 -5 14 2 26 13 26 23 18 14 -10z m-109 -486
c-4 -25 -11 -45 -17 -45 -12 0 -11 16 2 63 14 51 23 40 15 -18z m7709 -1190
c-3 -26 -9 -45 -12 -42 -2 3 -1 26 2 52 4 25 10 44 12 41 3 -3 2 -26 -2 -51z"/>
<path d="M15845 8258 c-8 -27 -10 -86 -3 -82 4 3 8 19 8 35 0 17 6 32 15 35 8
4 12 10 9 15 -8 13 -24 11 -29 -3z"/>
<path d="M9921 5821 c-19 -15 -32 -33 -30 -40 3 -7 18 5 37 28 18 23 32 41 30
41 -2 0 -18 -13 -37 -29z"/>
<path d="M7895 5470 c-3 -5 -2 -10 4 -10 5 0 13 5 16 10 3 6 2 10 -4 10 -5 0
-13 -4 -16 -10z"/>
<path d="M7802 5404 c-12 -8 -27 -25 -33 -37 -8 -16 -1 -12 25 12 33 32 40 41
33 41 -1 0 -13 -7 -25 -16z"/>
<path d="M7934 4988 l-29 -33 33 29 c17 17 32 31 32 33 0 8 -8 1 -36 -29z"/>
<path d="M13206 5303 l-37 -58 46 50 c44 49 53 65 36 65 -4 0 -25 -26 -45 -57z"/>
<path d="M15815 7480 c-3 -6 -3 -19 0 -30 5 -14 2 -20 -9 -20 -9 0 -16 -4 -16
-10 0 -5 6 -10 13 -10 14 0 37 40 37 65 0 17 -16 20 -25 5z"/>
<path d="M7315 7433 c-75 -7 -400 -53 -443 -64 -24 -5 -55 -17 -68 -25 -44
-29 -14 -33 54 -8 52 20 77 24 114 20 30 -4 47 -3 50 5 2 6 36 13 78 16 40 2
88 10 104 16 20 8 91 12 196 12 132 0 172 -4 200 -17 35 -16 35 -16 -80 -17
-63 -1 -142 -6 -175 -12 -33 -5 -105 -16 -160 -24 -128 -17 -257 -45 -270 -57
-6 -6 -5 -12 4 -17 11 -7 10 -11 -5 -19 -42 -21 -168 -53 -190 -48 -17 5 -24
2 -24 -7 0 -9 -35 -21 -110 -36 -60 -13 -125 -31 -143 -41 -42 -23 -127 -37
-127 -21 0 17 48 37 155 64 55 14 152 38 215 55 63 16 127 32 143 36 48 11 32
29 -21 23 -54 -6 -363 -98 -430 -127 -24 -11 -60 -22 -80 -25 -20 -4 -46 -10
-57 -15 -11 -5 -39 -14 -62 -20 -49 -12 -62 -26 -32 -35 13 -4 25 -1 32 9 17
22 92 33 100 13 4 -11 -5 -16 -38 -19 -24 -3 -56 -16 -72 -28 l-28 -23 45 7
c25 4 83 21 130 37 117 42 686 195 772 208 80 12 68 24 -19 19 -80 -5 -126 4
-87 15 17 6 235 37 252 37 4 0 -11 -12 -33 -25 l-40 -26 40 6 c180 24 375 33
444 19 29 -6 60 -39 47 -51 -3 -3 -41 1 -84 9 -72 13 -95 13 -244 -3 -138 -15
-483 -81 -497 -95 -8 -8 16 -4 115 16 188 39 308 52 507 55 166 3 197 1 197
-11 0 -25 -47 -131 -78 -176 -89 -129 -323 -370 -522 -537 -60 -50 -50 -66 16
-26 69 41 73 45 42 39 -18 -4 -10 6 32 45 57 52 73 62 64 36 -4 -8 -2 -15 4
-15 12 0 43 46 46 68 4 23 45 52 76 52 15 0 30 7 34 15 3 8 2 14 -2 14 -22 -4
-20 4 7 27 17 14 31 31 31 37 0 19 39 39 61 32 14 -5 18 -2 17 12 -2 12 20 40
60 77 69 65 89 70 42 11 -17 -21 -33 -50 -36 -64 -3 -14 -10 -39 -15 -55 -5
-16 -6 -32 -3 -35 10 -9 72 68 79 98 7 33 64 125 72 117 3 -3 12 -1 20 5 10 9
13 7 13 -7 0 -21 -14 -46 -24 -45 -23 3 -28 -1 -23 -20 8 -29 -12 -69 -35 -69
-14 0 -17 -5 -13 -23 5 -18 0 -28 -19 -41 -31 -20 -34 -36 -5 -36 34 0 59 19
59 45 0 19 5 25 23 25 17 0 19 2 8 9 -22 14 -1 53 59 108 54 50 90 126 90 192
0 138 -107 262 -259 297 -51 13 -198 16 -296 7z m203 -79 c59 -16 -19 -38
-113 -32 l-50 4 35 16 c36 18 88 22 128 12z m-203 -24 c3 -5 -3 -10 -15 -10
-12 0 -18 5 -15 10 3 6 10 10 15 10 5 0 12 -4 15 -10z m495 -210 c0 -5 -4 -10
-10 -10 -5 0 -10 5 -10 10 0 6 5 10 10 10 6 0 10 -4 10 -10z m-100 -90 c0 -5
-2 -10 -4 -10 -3 0 -8 5 -11 10 -3 6 -1 10 4 10 6 0 11 -4 11 -10z"/>
<path d="M15788 7373 c7 -3 16 -2 19 1 4 3 -2 6 -13 5 -11 0 -14 -3 -6 -6z"/>
<path d="M6695 7323 c-22 -7 -47 -20 -55 -28 -13 -13 -12 -15 5 -14 11 0 42
10 70 23 58 26 43 41 -20 19z"/>
<path d="M6554 7279 c12 -8 25 -8 40 -1 18 9 16 11 -19 11 -33 0 -37 -1 -21
-10z"/>
<path d="M6350 7235 c-126 -33 -238 -71 -253 -85 -5 -4 8 -10 27 -12 26 -3 41
1 53 14 11 12 30 18 60 18 30 0 49 6 63 20 11 11 29 20 39 20 28 0 149 39 156
50 9 15 -8 12 -145 -25z"/>
<path d="M6838 7143 c7 -3 16 -2 19 1 4 3 -2 6 -13 5 -11 0 -14 -3 -6 -6z"/>
<path d="M5965 7111 c-74 -29 -156 -70 -142 -71 4 0 22 7 39 16 17 9 39 14 49
11 10 -3 20 1 23 9 3 7 30 20 60 29 31 9 58 21 61 26 10 15 -17 10 -90 -20z"/>
<path d="M6798 7133 c7 -3 16 -2 19 1 4 3 -2 6 -13 5 -11 0 -14 -3 -6 -6z"/>
<path d="M15724 7116 c-3 -13 -4 -35 -1 -47 3 -19 5 -17 6 8 0 17 6 35 11 38
13 8 13 25 0 25 -5 0 -12 -11 -16 -24z"/>
<path d="M15564 7085 c-11 -23 -10 -24 7 -14 10 5 19 16 19 24 0 23 -14 18
-26 -10z"/>
<path d="M15697 7063 c-4 -3 -7 -17 -7 -30 0 -17 5 -23 16 -21 8 2 14 8 12 13
-2 6 -6 9 -9 8 -4 -1 -5 7 -2 17 5 20 2 25 -10 13z"/>
<path d="M6390 7026 c-314 -90 -1141 -383 -1174 -416 -28 -28 81 2 196 54 106
47 413 158 768 277 359 120 419 144 210 85z"/>
<path d="M6024 7031 c-87 -21 -184 -60 -184 -73 0 -6 11 -7 25 -4 30 8 32 -3
5 -32 -12 -13 -33 -22 -50 -22 -16 0 -35 -7 -44 -15 -8 -8 -27 -15 -41 -15
-15 0 -57 -13 -95 -30 -38 -16 -74 -30 -81 -30 -9 0 -10 -3 -3 -10 8 -8 43 0
115 24 179 60 224 80 227 102 4 19 28 44 45 44 5 0 7 -7 3 -15 -3 -8 -1 -15 4
-15 6 0 10 8 10 18 0 12 19 26 63 45 34 15 68 27 75 27 6 0 12 5 12 10 0 12 1
12 -86 -9z"/>
<path d="M15654 7006 c-3 -21 -4 -39 -1 -42 2 -3 8 11 11 32 4 20 5 38 2 41
-2 3 -8 -11 -12 -31z"/>
<path d="M5695 7015 c-274 -93 -345 -123 -345 -145 0 -6 10 -10 22 -10 12 0
18 3 15 7 -12 11 154 84 175 77 11 -3 27 1 36 9 9 8 28 17 43 20 14 4 50 18
80 31 58 26 41 34 -26 11z"/>
<path d="M6065 6974 c-40 -14 -40 -14 -5 -9 19 3 39 10 44 15 12 12 11 12 -39
-6z"/>
<path d="M15681 6938 c-1 -16 -5 -28 -11 -28 -5 0 -10 -16 -10 -36 l0 -37 21
27 c18 23 19 32 11 64 -9 33 -10 34 -11 10z"/>
<path d="M5736 6934 c-21 -8 -44 -18 -50 -23 -6 -5 -44 -20 -84 -35 -94 -33
-134 -55 -127 -66 10 -16 32 -12 69 14 36 24 221 96 248 96 9 0 18 7 22 15 7
19 -24 19 -78 -1z"/>
<path d="M15576 6924 c-9 -24 4 -89 15 -72 13 20 11 50 -2 42 -9 -5 -10 1 -5
20 7 29 2 35 -8 10z"/>
<path d="M15632 6880 c0 -14 2 -19 5 -12 2 6 2 18 0 25 -3 6 -5 1 -5 -13z"/>
<path d="M5160 6806 c-140 -44 -230 -81 -265 -111 -19 -16 -19 -16 19 -11 24
3 49 15 63 30 12 13 33 27 45 31 72 21 275 88 288 96 31 18 -15 7 -150 -35z"/>
<path d="M15672 6805 c0 -16 2 -22 5 -12 2 9 2 23 0 30 -3 6 -5 -1 -5 -18z"/>
<path d="M15546 6804 c-9 -23 -7 -62 3 -68 5 -3 11 7 13 22 3 15 9 35 13 45 5
12 3 17 -8 17 -8 0 -18 -7 -21 -16z"/>
<path d="M5315 6771 c-119 -40 -155 -56 -155 -71 0 -14 1 -14 103 24 51 19
104 38 119 41 25 6 72 46 52 44 -5 0 -58 -17 -119 -38z"/>
<path d="M15630 6744 c0 -21 4 -33 10 -29 6 3 10 19 10 36 0 16 -4 29 -10 29
-5 0 -10 -16 -10 -36z"/>
<path d="M15526 6695 c-2 -6 -2 -23 1 -37 3 -14 0 -29 -6 -32 -6 -4 -11 -24
-10 -44 l0 -37 16 50 c8 28 21 57 29 66 8 8 14 22 14 30 0 17 -37 20 -44 4z"/>
<path d="M15590 6694 c0 -11 -5 -25 -12 -32 -9 -9 -9 -12 0 -12 13 0 28 47 18
57 -3 4 -6 -3 -6 -13z"/>
<path d="M4960 6625 c-117 -60 -122 -64 -87 -64 46 -1 46 -21 1 -35 -16 -4
-36 -12 -44 -17 -52 -31 -64 -20 -24 22 l29 31 -42 -21 c-23 -11 -54 -21 -68
-21 -15 0 -114 -45 -220 -99 -107 -55 -207 -102 -223 -105 -15 -4 -34 -16 -42
-26 -8 -11 -22 -20 -32 -20 -9 0 -20 -5 -24 -11 -5 -8 6 -9 37 -4 50 8 79 21
79 35 0 5 31 18 68 29 37 11 77 29 88 40 29 26 79 51 104 51 11 0 23 6 26 14
5 13 28 24 64 31 8 1 22 6 31 9 10 4 20 3 23 -2 3 -6 -14 -20 -39 -32 -25 -12
-43 -26 -40 -31 7 -10 31 -1 122 44 37 19 102 49 143 66 79 33 148 80 119 81
-9 0 -22 -7 -29 -15 -16 -19 -50 -20 -50 -1 0 12 100 63 164 83 17 5 32 15 34
21 8 26 -49 8 -168 -53z"/>
<path d="M15608 6661 c-4 -28 -4 -29 19 -14 13 9 22 16 21 17 -2 1 -10 7 -19
14 -14 11 -17 8 -21 -17z"/>
<path d="M4780 6656 c-19 -8 -105 -49 -190 -93 -85 -43 -236 -118 -335 -166
-212 -102 -511 -260 -610 -324 -112 -72 -366 -266 -434 -330 -47 -45 -60 -64
-55 -79 4 -14 3 -15 -4 -5 -7 10 -11 10 -17 1 -4 -6 -13 -9 -20 -6 -19 7 -122
-159 -153 -247 -22 -60 -26 -90 -27 -177 0 -89 3 -111 22 -145 37 -69 122
-139 211 -174 85 -34 332 -78 332 -60 0 5 -15 9 -32 9 -18 0 -69 6 -113 14
-144 26 -189 57 -52 36 41 -6 94 -10 118 -9 24 0 62 -4 84 -10 42 -11 96 -10
695 10 272 10 338 15 352 27 16 13 18 13 24 -2 7 -19 52 -21 104 -5 47 14 132
18 147 7 8 -6 54 -5 124 3 62 6 150 9 199 6 54 -4 100 -2 119 4 40 14 69 5 51
-16 -10 -12 -48 -15 -216 -15 -114 0 -205 -4 -209 -9 -3 -6 203 -11 527 -14
523 -3 536 -4 693 -30 382 -64 425 -77 425 -121 0 -67 -100 -198 -220 -291
-159 -122 -473 -296 -640 -353 -117 -40 -353 -94 -437 -99 -59 -4 -62 -4 -75
23 -16 34 -102 101 -141 110 -35 7 -52 -6 -77 -64 -18 -39 -20 -58 -14 -135 6
-76 10 -90 29 -103 13 -8 25 -27 28 -42 5 -27 10 -29 96 -41 246 -37 456 17
892 227 92 44 209 106 260 137 125 76 303 210 361 272 151 162 150 370 -2 518
-38 38 -53 47 -59 36 -5 -8 -11 -9 -15 -3 -3 6 -1 12 6 14 16 6 -112 82 -171
103 -46 16 -81 22 -341 61 -376 56 -508 55 -2135 -13 -207 -8 -515 21 -654 63
-34 10 -68 29 -89 50 -31 31 -33 38 -27 72 11 64 49 114 172 228 146 136 215
193 342 283 128 91 461 282 668 383 164 80 192 98 153 98 -36 0 -293 -139
-683 -371 -200 -119 -237 -127 -74 -17 49 33 86 62 83 65 -3 3 -21 -5 -41 -17
-20 -12 -38 -20 -41 -17 -7 7 37 52 66 67 14 7 58 35 99 62 40 27 85 54 99 59
19 8 23 12 13 22 -9 9 -37 -2 -121 -46 -61 -31 -117 -57 -125 -57 -8 0 -12 -6
-9 -13 2 -7 -6 -19 -18 -25 -41 -21 -204 -125 -323 -206 -63 -43 -118 -76
-122 -73 -3 4 14 26 38 49 24 23 43 47 41 54 -1 6 12 21 30 32 18 12 62 44 98
72 36 28 99 68 141 88 44 22 74 43 71 50 -2 6 3 12 11 12 9 0 60 29 114 66 54
36 194 112 311 170 116 57 212 109 212 114 0 5 25 17 55 26 30 10 55 22 55 26
0 14 103 58 121 53 8 -3 26 6 39 20 13 14 28 25 34 25 13 0 216 99 216 105 0
8 -23 5 -60 -9z m-1110 -750 c0 -20 -19 -40 -54 -58 -70 -36 -146 -98 -163
-134 -12 -25 -22 -33 -34 -29 -14 5 -16 1 -12 -15 3 -11 1 -20 -5 -20 -5 0
-12 10 -15 22 -5 16 5 34 36 69 23 26 48 47 55 48 7 1 48 28 90 61 67 52 102
71 102 56z m-115 -146 c-3 -5 -15 -10 -26 -10 -11 0 -17 5 -14 10 3 6 15 10
26 10 11 0 17 -4 14 -10z m-300 -20 c-3 -5 -10 -10 -16 -10 -5 0 -9 5 -9 10 0
6 7 10 16 10 8 0 12 -4 9 -10z m245 -14 c0 -3 -4 -8 -10 -11 -5 -3 -10 -1 -10
4 0 6 5 11 10 11 6 0 10 -2 10 -4z m-315 -166 c3 -5 1 -10 -4 -10 -6 0 -11 5
-11 10 0 6 2 10 4 10 3 0 8 -4 11 -10z m-169 -227 c-10 -10 -19 5 -10 18 6 11
8 11 12 0 2 -7 1 -15 -2 -18z m78 -206 c6 -9 7 -19 3 -23 -9 -9 -37 15 -37 33
0 18 20 12 34 -10z m64 -16 c9 -5 89 -18 177 -28 170 -19 579 -24 820 -10 365
22 1447 29 1480 9 17 -9 9 -12 -50 -12 -38 -1 -225 -2 -415 -4 -190 -1 -417
-8 -505 -14 -288 -20 -785 -34 -1045 -30 -217 3 -262 7 -300 22 -25 10 -60 18
-79 17 -35 -1 -121 34 -121 50 0 12 15 12 38 0z m2704 -42 c87 -14 105 -34 22
-25 -32 3 -94 9 -136 12 -58 5 -78 10 -78 21 0 15 54 13 192 -8z m168 -30 c0
-5 -4 -9 -10 -9 -5 0 -10 7 -10 16 0 8 5 12 10 9 6 -3 10 -10 10 -16z m-2733
-13 c234 -27 608 -36 776 -21 69 6 87 5 87 -5 0 -9 6 -8 19 4 16 14 23 15 41
6 17 -9 32 -9 66 0 34 10 54 10 90 1 28 -7 50 -8 57 -3 14 11 366 34 546 35
84 1 126 -2 128 -10 3 -8 12 -7 31 3 36 19 287 19 582 -1 311 -20 370 -26 370
-37 0 -9 -316 -5 -598 8 -86 3 -122 2 -117 -5 4 -7 62 -11 157 -11 83 0 149
-3 145 -6 -3 -3 -218 -10 -479 -14 -260 -5 -538 -14 -618 -19 -380 -26 -932
-41 -1085 -29 -146 12 -384 73 -409 106 -9 12 -15 22 -12 22 3 0 103 -11 223
-24z m2531 -53 c2 -9 -9 -13 -36 -13 -46 0 -72 8 -72 22 0 14 103 5 108 -9z
m-2644 -39 c3 -8 2 -12 -4 -9 -6 3 -10 10 -10 16 0 14 7 11 14 -7z m2250 2
c16 -1 31 -7 32 -14 1 -7 1 -9 -2 -4 -2 4 -22 6 -44 4 -22 -2 -47 -1 -56 2
-23 9 -6 28 19 20 11 -4 34 -7 51 -8z m226 -6 c3 0 -3 -5 -13 -11 -19 -11 -80
-2 -72 10 3 6 54 7 85 1z m110 0 c0 -5 -5 -10 -11 -10 -5 0 -7 5 -4 10 3 6 8
10 11 10 2 0 4 -4 4 -10z m826 -326 c-4 -9 -1 -23 5 -31 10 -11 -5 -30 -75
-98 -48 -47 -96 -85 -107 -85 -14 0 -19 -7 -19 -25 0 -26 -15 -34 -23 -12 -3
8 -14 1 -31 -19 -14 -18 -38 -35 -53 -39 -15 -3 -82 -42 -148 -85 -109 -72
-258 -150 -284 -150 -26 0 -8 22 32 39 23 10 62 37 86 59 25 23 61 49 80 58
74 35 211 123 349 224 111 81 139 107 130 117 -8 10 -7 13 5 13 8 0 22 11 31
25 19 28 31 33 22 9z m-137 -287 c-52 -47 -98 -77 -119 -77 -20 0 12 31 93 91
72 53 91 43 26 -14z m-219 -147 c0 -5 -4 -10 -10 -10 -5 0 -10 5 -10 10 0 6 5
10 10 10 6 0 10 -4 10 -10z m-75 -30 c-3 -5 -11 -10 -16 -10 -6 0 -7 5 -4 10
3 6 11 10 16 10 6 0 7 -4 4 -10z m-152 -80 c-12 -10 -52 -26 -88 -35 -46 -13
-62 -21 -53 -28 9 -6 7 -7 -6 -3 -11 4 -48 -4 -82 -16 -63 -22 -94 -20 -60 5
10 7 73 30 139 51 67 21 131 41 142 46 29 11 33 1 8 -20z m-333 -129 c0 -14
-18 -23 -30 -16 -6 4 -8 11 -5 16 8 12 35 12 35 0z"/>
<path d="M5160 6650 c-8 -5 -12 -12 -9 -15 8 -8 39 5 39 16 0 11 -11 11 -30
-1z"/>
<path d="M15562 6590 c0 -14 2 -19 5 -12 2 6 2 18 0 25 -3 6 -5 1 -5 -13z"/>
<path d="M15586 6572 c-3 -20 -1 -41 4 -46 15 -15 12 -26 -6 -19 -12 4 -15 1
-12 -13 2 -10 10 -19 17 -19 17 0 34 52 20 61 -5 3 -9 10 -9 15 0 6 5 7 10 4
15 -9 12 24 -4 40 -11 12 -14 8 -20 -23z"/>
<path d="M5115 6575 c-29 -13 -29 -13 -5 -14 14 0 36 6 50 14 22 13 23 14 5
14 -11 0 -33 -6 -50 -14z"/>
<path d="M15550 6535 c0 -8 2 -15 4 -15 2 0 6 7 10 15 3 8 1 15 -4 15 -6 0
-10 -7 -10 -15z"/>
<path d="M4955 6506 c-33 -19 -142 -66 -242 -106 -100 -39 -192 -80 -205 -91
l-23 -20 25 7 c33 9 439 178 489 204 22 11 42 24 46 30 13 21 -32 9 -90 -24z"/>
<path d="M15526 6434 c-4 -14 -5 -29 -2 -31 3 -3 8 7 12 21 3 15 4 29 1 32 -2
3 -8 -7 -11 -22z"/>
<path d="M15558 6422 c-21 -50 -26 -94 -10 -99 8 -3 12 9 12 41 0 36 3 44 15
40 10 -4 15 0 15 12 0 41 -16 43 -32 6z"/>
<path d="M6995 6409 c-4 -6 -5 -12 -2 -15 7 -7 37 7 37 17 0 13 -27 11 -35 -2z"/>
<path d="M15442 6368 c-6 -24 -18 -68 -26 -98 -18 -63 -20 -94 -6 -85 6 3 10
17 10 31 0 13 4 24 8 24 5 0 7 13 4 30 -3 24 2 36 27 59 18 17 27 32 21 36 -5
3 -10 15 -10 26 0 35 -18 20 -28 -23z"/>
<path d="M4400 6304 c-30 -22 -31 -25 -10 -19 14 4 39 16 55 26 24 15 26 19
10 18 -11 0 -36 -11 -55 -25z"/>
<path d="M15492 6275 c0 -16 2 -22 5 -12 2 9 2 23 0 30 -3 6 -5 -1 -5 -18z"/>
<path d="M15516 6267 c-10 -38 -7 -54 6 -32 12 19 13 18 19 -10 6 -28 7 -27 8
11 1 47 -23 69 -33 31z"/>
<path d="M7025 6269 c-4 -6 -5 -12 -2 -15 2 -3 7 2 10 11 7 17 1 20 -8 4z"/>
<path d="M4190 6210 c-57 -32 -108 -56 -112 -54 -15 9 -8 20 20 31 27 11 27
11 3 12 -31 1 -107 -35 -115 -54 -7 -18 17 -20 44 -3 24 15 37 4 20 -17 -12
-14 -10 -15 16 -9 34 8 228 106 264 134 l25 20 -30 -1 c-17 -1 -76 -27 -135
-59z"/>
<path d="M6970 6240 c0 -5 7 -7 15 -4 8 4 15 8 15 10 0 2 -7 4 -15 4 -8 0 -15
-4 -15 -10z"/>
<path d="M15462 6140 c0 -14 2 -19 5 -12 2 6 2 18 0 25 -3 6 -5 1 -5 -13z"/>
<path d="M15511 6113 c1 -43 2 -45 9 -18 11 44 11 65 0 65 -5 0 -9 -21 -9 -47z"/>
<path d="M12798 6105 c-44 -30 -52 -51 -43 -115 7 -47 8 -49 67 -79 77 -40
106 -40 113 -3 3 15 9 44 14 64 5 25 4 47 -6 69 -7 18 -11 34 -8 37 8 9 -58
52 -80 52 -11 0 -37 -11 -57 -25z"/>
<path d="M15406 6085 c-9 -14 -13 -25 -9 -25 10 0 36 40 30 46 -2 3 -12 -7
-21 -21z"/>
<path d="M3912 6060 c-74 -44 -102 -68 -102 -87 0 -7 3 -13 6 -13 15 0 96 55
105 71 5 10 16 19 24 19 7 0 20 6 27 13 7 7 22 18 33 25 19 11 19 11 -5 11
-14 -1 -53 -18 -88 -39z"/>
<path d="M15437 6053 c-13 -71 -29 -150 -34 -168 -3 -11 -2 -17 2 -13 7 7 23
64 30 114 2 17 9 44 15 58 12 33 12 36 1 36 -5 0 -11 -12 -14 -27z"/>
<path d="M15371 6058 c0 -9 -4 -25 -7 -35 -5 -14 -4 -15 5 -7 7 7 11 22 8 35
-2 13 -5 16 -6 7z"/>
<path d="M15480 6010 c0 -5 5 -10 10 -10 6 0 10 5 10 10 0 6 -4 10 -10 10 -5
0 -10 -4 -10 -10z"/>
<path d="M6500 5975 c-54 -34 -55 -48 -2 -21 25 13 71 56 61 56 -3 0 -29 -16
-59 -35z"/>
<path d="M15345 5931 c-8 -26 1 -39 16 -24 8 8 8 17 1 29 -9 16 -10 15 -17 -5z"/>
<path d="M15386 5803 c-3 -16 -8 -39 -12 -53 -5 -17 -3 -22 4 -15 5 6 13 29
17 53 7 46 1 58 -9 15z"/>
<path d="M15018 5765 c-16 -18 -28 -39 -28 -46 1 -14 70 61 70 76 0 13 -17 1
-42 -30z"/>
<path d="M15316 5784 c-3 -9 -6 -25 -6 -37 1 -21 1 -21 15 3 8 14 14 31 15 38
0 17 -17 15 -24 -4z"/>
<path d="M15304 5712 c-6 -4 -7 -18 -4 -32 l7 -25 8 28 c8 31 5 40 -11 29z"/>
<path d="M15361 5691 c-15 -26 -18 -80 -6 -81 6 0 12 14 15 32 4 24 10 33 23
32 21 -2 23 22 1 30 -22 8 -22 8 -33 -13z"/>
<path d="M10419 5537 c-52 -35 -95 -71 -97 -81 -3 -13 6 -11 45 13 47 30 164
130 152 131 -4 0 -49 -28 -100 -63z"/>
<path d="M12595 5580 c3 -5 8 -10 11 -10 2 0 4 5 4 10 0 6 -5 10 -11 10 -5 0
-7 -4 -4 -10z"/>
<path d="M15250 5543 c0 -10 -3 -29 -6 -43 l-5 -25 13 23 c8 12 17 19 21 16 4
-4 7 -2 7 5 0 7 -7 19 -15 27 -13 14 -15 13 -15 -3z"/>
<path d="M15319 5548 c0 -7 -3 -33 -5 -58 -2 -25 -5 -61 -7 -80 -1 -19 -6 -41
-11 -48 -5 -8 -4 -18 2 -24 7 -7 13 -4 20 8 16 32 22 82 10 86 -7 3 -5 13 7
31 16 26 18 26 31 10 12 -17 13 -16 14 9 0 21 -4 25 -20 21 -17 -5 -20 0 -20
26 0 29 -19 46 -21 19z"/>
<path d="M12530 5529 c0 -5 5 -7 10 -4 6 3 10 8 10 11 0 2 -4 4 -10 4 -5 0
-10 -5 -10 -11z"/>
<path d="M12389 5501 c-13 -11 -19 -20 -13 -21 15 0 50 27 43 34 -3 4 -17 -2
-30 -13z"/>
<path d="M12005 5490 c3 -5 8 -10 11 -10 2 0 4 5 4 10 0 6 -5 10 -11 10 -5 0
-7 -4 -4 -10z"/>
<path d="M12340 5480 c-13 -8 -12 -10 3 -10 9 0 17 5 17 10 0 12 -1 12 -20 0z"/>
<path d="M12370 5444 c-30 -20 -47 -33 -37 -30 10 3 26 6 35 6 22 1 92 60 71
60 -8 0 -39 -16 -69 -36z"/>
<path d="M12285 5449 c-12 -19 5 -23 22 -6 16 16 16 17 1 17 -9 0 -20 -5 -23
-11z"/>
<path d="M10269 5419 c-11 -11 -18 -23 -15 -26 7 -8 56 25 56 37 0 16 -19 11
-41 -11z"/>
<path d="M12198 5343 c7 -3 16 -2 19 1 4 3 -2 6 -13 5 -11 0 -14 -3 -6 -6z"/>
<path d="M15190 5285 c0 -14 5 -25 10 -25 6 0 10 11 10 25 0 14 -4 25 -10 25
-5 0 -10 -11 -10 -25z"/>
<path d="M15331 5294 c0 -11 3 -14 6 -6 3 7 2 16 -1 19 -3 4 -6 -2 -5 -13z"/>
<path d="M12100 5290 c0 -5 5 -10 10 -10 6 0 10 5 10 10 0 6 -4 10 -10 10 -5
0 -10 -4 -10 -10z"/>
<path d="M15281 5263 c0 -29 2 -33 8 -18 7 18 4 55 -5 55 -2 0 -4 -17 -3 -37z"/>
<path d="M14620 5239 c0 -5 5 -7 10 -4 6 3 10 8 10 11 0 2 -4 4 -10 4 -5 0
-10 -5 -10 -11z"/>
<path d="M15306 5235 c-3 -8 -1 -15 4 -15 6 0 10 7 10 15 0 8 -2 15 -4 15 -2
0 -6 -7 -10 -15z"/>
<path d="M15165 5189 c5 -20 3 -34 -4 -39 -8 -4 -9 -15 -3 -31 10 -27 8 -33
28 71 4 24 2 30 -11 30 -13 0 -15 -6 -10 -31z"/>
<path d="M15265 5200 c4 -6 11 -8 16 -5 14 9 11 15 -7 15 -8 0 -12 -5 -9 -10z"/>
<path d="M11890 5180 c0 -5 5 -10 10 -10 6 0 10 5 10 10 0 6 -4 10 -10 10 -5
0 -10 -4 -10 -10z"/>
<path d="M15290 5164 c0 -8 5 -12 10 -9 6 3 10 10 10 16 0 5 -4 9 -10 9 -5 0
-10 -7 -10 -16z"/>
<path d="M15249 5158 c-7 -17 -5 -128 2 -128 5 0 9 22 9 49 0 27 3 56 6 65 3
9 1 16 -5 16 -6 0 -11 -1 -12 -2z"/>
<path d="M11795 5130 c-3 -5 -2 -10 4 -10 5 0 13 5 16 10 3 6 2 10 -4 10 -5 0
-13 -4 -16 -10z"/>
<path d="M14515 5120 c-3 -5 -1 -10 4 -10 6 0 11 5 11 10 0 6 -2 10 -4 10 -3
0 -8 -4 -11 -10z"/>
<path d="M15220 4981 c0 -11 -3 -21 -7 -23 -5 -1 -5 -21 -2 -43 4 -23 7 -30 8
-16 0 13 4 21 8 17 4 -4 6 -24 5 -44 -4 -52 14 -20 21 41 6 39 3 51 -13 67
-19 19 -20 19 -20 1z m20 -41 c0 -5 -5 -10 -11 -10 -5 0 -7 5 -4 10 3 6 8 10
11 10 2 0 4 -4 4 -10z"/>
<path d="M9745 4970 c-3 -5 -1 -10 4 -10 6 0 11 5 11 10 0 6 -2 10 -4 10 -3 0
-8 -4 -11 -10z"/>
<path d="M15120 4945 c0 -14 -4 -25 -10 -25 -5 0 -10 -4 -10 -10 0 -5 6 -10
14 -10 8 0 15 14 18 35 2 19 0 35 -4 35 -4 0 -8 -11 -8 -25z"/>
<path d="M15148 4944 c-5 -4 -8 -19 -8 -33 0 -18 3 -22 11 -14 6 6 9 21 7 33
-1 12 -6 18 -10 14z"/>
<path d="M4763 4893 c9 -2 23 -2 30 0 6 3 -1 5 -18 5 -16 0 -22 -2 -12 -5z"/>
<path d="M4578 4883 c-21 -2 -38 -9 -38 -15 0 -7 13 -8 38 -2 20 4 61 6 90 5
31 -1 52 2 52 8 0 11 -62 12 -142 4z"/>
<path d="M4310 4870 c-60 -5 -62 -6 -30 -13 54 -12 223 -4 228 11 4 13 -73 14
-198 2z"/>
<path d="M15111 4868 c0 -9 -4 -25 -7 -35 -5 -14 -4 -15 5 -7 7 7 11 22 8 35
-2 13 -5 16 -6 7z"/>
<path d="M3983 4863 c-128 -6 -100 -23 35 -22 129 0 184 11 117 22 -22 4 -47
6 -55 5 -8 -1 -52 -4 -97 -5z"/>
<path d="M3690 4851 l-65 -6 70 -6 c79 -7 145 -1 145 12 0 9 -42 9 -150 0z"/>
<path d="M15175 4840 l-30 -8 33 -1 c17 0 32 4 32 9 0 6 -1 9 -2 9 -2 -1 -16
-5 -33 -9z"/>
<path d="M15221 4784 c0 -11 3 -14 6 -6 3 7 2 16 -1 19 -3 4 -6 -2 -5 -13z"/>
<path d="M15071 4743 c-1 -23 -4 -48 -7 -57 -3 -9 -1 -16 4 -16 16 0 25 61 13
90 -9 23 -10 21 -10 -17z"/>
<path d="M15176 4758 c-3 -7 -7 -33 -10 -58 -3 -25 -8 -54 -12 -65 -5 -13 -4
-16 4 -11 7 4 12 16 12 26 0 10 5 22 10 25 6 3 10 -4 10 -16 0 -12 3 -20 6
-17 3 3 1 29 -4 56 -6 34 -6 54 1 61 8 8 7 11 -1 11 -7 0 -14 -6 -16 -12z"/>
<path d="M15120 4679 c0 -11 5 -17 10 -14 6 3 10 13 10 21 0 8 -4 14 -10 14
-5 0 -10 -9 -10 -21z"/>
<path d="M15039 4603 c0 -10 -2 -33 -4 -51 -2 -21 1 -32 9 -29 12 4 16 86 4
94 -5 2 -8 -4 -9 -14z"/>
<path d="M15130 4549 c0 -17 -5 -40 -11 -51 -8 -14 -8 -23 0 -31 13 -13 18 0
24 66 2 26 1 47 -4 47 -5 0 -9 -14 -9 -31z"/>
<path d="M15162 4533 c-1 -17 -5 -40 -8 -50 -5 -14 -4 -15 5 -7 7 7 11 28 8
50 -3 35 -4 35 -5 7z"/>
<path d="M15017 4473 c-11 -10 -8 -63 3 -63 5 0 7 6 4 14 -3 8 -1 17 5 21 6 3
11 13 11 21 0 15 -12 19 -23 7z"/>
<path d="M7287 4437 c-4 -10 -7 -26 -7 -35 1 -15 2 -15 11 1 6 10 9 25 7 35
-3 16 -4 15 -11 -1z"/>
<path d="M14968 4430 c-9 -14 -19 -40 -23 -59 -6 -27 -4 -32 6 -25 12 6 12 5
1 -8 -12 -15 -33 -107 -35 -153 0 -11 -4 -22 -8 -25 -4 -3 -10 -38 -13 -78 -5
-61 -3 -72 11 -72 13 0 15 10 11 60 -2 33 0 61 5 63 6 2 11 19 13 37 7 65 12
95 34 178 23 91 22 121 -2 82z"/>
<path d="M15102 4400 c0 -14 2 -19 5 -12 2 6 2 18 0 25 -3 6 -5 1 -5 -13z"/>
<path d="M15000 4360 c0 -11 5 -20 10 -20 6 0 10 9 10 20 0 11 -4 20 -10 20
-5 0 -10 -9 -10 -20z"/>
<path d="M7268 4364 c-5 -4 -8 -19 -8 -33 0 -18 3 -22 11 -14 6 6 9 21 7 33
-1 12 -6 18 -10 14z"/>
<path d="M14980 4304 c0 -8 5 -12 10 -9 6 3 10 10 10 16 0 5 -4 9 -10 9 -5 0
-10 -7 -10 -16z"/>
<path d="M7247 4283 c-4 -3 -7 -16 -6 -27 0 -19 1 -19 10 3 10 24 8 36 -4 24z"/>
<path d="M14976 4248 c-4 -18 -10 -50 -13 -71 -3 -20 -9 -40 -14 -43 -5 -3 -9
-10 -9 -15 0 -6 5 -7 10 -4 12 8 13 -8 1 -20 -5 -6 -11 -28 -14 -50 -3 -22 -8
-51 -12 -65 -5 -19 -4 -22 4 -10 9 13 11 12 11 -3 0 -10 4 -16 9 -13 5 3 12
43 16 88 4 46 11 93 16 104 4 13 3 26 -4 33 -8 8 -8 11 1 11 15 0 27 69 14 82
-6 6 -12 -2 -16 -24z"/>
<path d="M7213 4172 c-7 -30 -13 -66 -12 -80 1 -22 4 -18 15 18 8 25 13 61 12
80 -3 33 -4 32 -15 -18z"/>
<path d="M7172 4013 c-25 -46 -74 -224 -78 -278 -2 -33 -2 -55 1 -50 6 13 75
249 86 299 11 43 6 58 -9 29z"/>
<path d="M14880 3968 c0 -13 -7 -56 -15 -97 -13 -61 -14 -76 -3 -83 10 -8 10
-11 1 -15 -7 -2 -13 -11 -13 -18 0 -7 6 -16 13 -18 9 -4 8 -8 -3 -16 -8 -6
-15 -16 -16 -23 0 -7 -5 -21 -9 -32 -5 -11 -3 -21 5 -26 9 -6 9 -9 0 -15 -9
-6 -9 -9 0 -15 8 -5 10 -15 5 -26 -7 -18 -8 -18 -15 1 -5 11 -9 16 -10 10 -2
-15 -19 -164 -24 -206 -2 -21 -9 -68 -16 -105 -7 -44 -8 -78 -3 -93 9 -22 10
-21 21 20 6 24 16 78 22 119 7 41 17 92 22 113 5 21 6 47 3 57 -4 12 -2 20 4
20 6 0 11 15 11 34 0 19 4 37 9 40 9 6 5 -57 -10 -144 -6 -30 -14 -91 -19
-135 -5 -44 -13 -91 -17 -105 -4 -14 -8 -36 -10 -50 -1 -14 -5 -41 -8 -60 -3
-19 -10 -73 -16 -120 -6 -47 -15 -94 -19 -105 -8 -19 -11 -31 -30 -145 -5 -30
-12 -109 -15 -174 -7 -131 -14 -156 -49 -156 -13 0 -23 -6 -23 -14 0 -10 9
-14 29 -11 43 5 58 23 58 64 0 20 5 42 11 48 6 6 12 43 13 81 0 39 4 68 7 66
12 -7 18 70 7 83 -8 11 -7 12 7 7 15 -6 17 -3 13 14 -4 12 0 46 8 75 13 49 18
107 7 80 -10 -26 -25 -13 -18 15 4 15 7 36 7 47 -1 11 6 56 14 100 25 130 33
185 44 290 6 54 15 126 21 160 5 33 11 69 13 80 2 11 6 40 11 65 5 30 4 42 -3
35 -6 -5 -12 -21 -14 -35 -1 -14 -7 -23 -13 -20 -5 3 -9 12 -7 20 1 8 5 42 8
75 2 33 7 70 9 83 3 12 1 22 -5 22 -16 0 -12 36 6 51 10 8 14 22 10 41 -3 15
-1 30 4 33 16 10 12 35 -5 35 -9 0 -15 -9 -15 -22z m-93 -1155 c-3 -10 -5 -4
-5 12 0 17 2 24 5 18 2 -7 2 -21 0 -30z"/>
<path d="M14925 3904 c-4 -16 -11 -39 -16 -52 -11 -27 3 -63 16 -42 4 7 2 15
-4 19 -8 5 -6 13 7 25 12 10 18 27 16 42 -4 37 -12 41 -19 8z"/>
<path d="M14905 3754 c-3 -20 -4 -39 -1 -42 9 -8 13 0 19 41 7 48 -9 49 -18 1z"/>
<path d="M7056 3759 c-3 -8 -12 -43 -21 -78 -16 -63 -15 -89 3 -54 14 29 36
132 29 139 -4 4 -9 1 -11 -7z"/>
<path d="M7073 3628 c-16 -20 -26 -58 -15 -58 11 0 37 58 30 66 -3 2 -10 -1
-15 -8z"/>
<path d="M7007 3580 c-7 -27 -1 -39 12 -24 5 5 5 18 2 28 -7 18 -8 18 -14 -4z"/>
<path d="M6891 3514 c0 -11 3 -14 6 -6 3 7 2 16 -1 19 -3 4 -6 -2 -5 -13z"/>
<path d="M6987 3524 c-4 -4 -7 -26 -7 -49 0 -23 -27 -150 -59 -281 -33 -131
-62 -264 -65 -294 -3 -33 15 24 44 140 82 325 113 471 103 481 -5 5 -12 6 -16
3z"/>
<path d="M7032 3488 c-46 -192 -72 -310 -77 -348 l-6 -45 15 32 c8 17 24 80
36 140 12 59 30 139 41 178 22 79 22 85 10 85 -4 0 -13 -19 -19 -42z"/>
<path d="M6875 3292 c-9 -31 -19 -63 -22 -69 -2 -7 0 -13 6 -13 5 0 13 16 17
36 4 24 11 34 20 30 20 -8 30 40 11 58 -13 13 -17 8 -32 -42z"/>
<path d="M6845 3160 c-3 -5 -1 -10 4 -10 6 0 11 5 11 10 0 6 -2 10 -4 10 -3 0
-8 -4 -11 -10z"/>
<path d="M6865 3145 c-4 -16 -15 -36 -24 -44 -10 -8 -12 -15 -5 -17 7 -3 8
-20 3 -52 -11 -66 -11 -141 0 -122 12 20 44 225 38 247 -3 13 -6 10 -12 -12z"/>
<path d="M14756 3138 c-14 -45 -16 -72 -5 -79 9 -5 8 -11 -4 -24 -10 -10 -17
-32 -17 -56 0 -22 -4 -48 -9 -57 -14 -28 -24 -115 -12 -107 6 3 11 22 11 41 0
23 5 34 15 34 9 0 16 14 20 38 3 20 10 55 15 77 15 66 17 138 3 142 -7 3 -15
-1 -17 -9z m-9 -205 c-3 -10 -5 -2 -5 17 0 19 2 27 5 18 2 -10 2 -26 0 -35z"/>
<path d="M6930 3044 c-10 -25 -14 -71 -6 -63 7 7 25 89 20 89 -3 0 -9 -12 -14
-26z"/>
<path d="M14832 3020 c0 -14 2 -19 5 -12 2 6 2 18 0 25 -3 6 -5 1 -5 -13z"/>
<path d="M6801 2914 c0 -11 3 -14 6 -6 3 7 2 16 -1 19 -3 4 -6 -2 -5 -13z"/>
<path d="M6895 2881 c-3 -5 -1 -12 5 -16 5 -3 10 1 10 9 0 18 -6 21 -15 7z"/>
<path d="M6806 2851 c-12 -13 -14 -21 -6 -26 14 -8 15 -7 24 23 9 27 4 28 -18
3z"/>
<path d="M14732 2830 c0 -14 2 -19 5 -12 2 6 2 18 0 25 -3 6 -5 1 -5 -13z"/>
<path d="M6874 2778 c-13 -55 -8 -65 18 -42 11 11 15 21 9 28 -5 6 -11 22 -13
36 -2 19 -5 14 -14 -22z"/>
<path d="M6776 2784 c-11 -27 -7 -37 9 -24 12 10 15 9 15 -5 0 -14 3 -15 14
-6 11 9 15 9 19 -1 3 -7 6 -1 6 14 1 20 -3 26 -13 22 -8 -3 -17 -1 -21 5 -9
16 -22 13 -29 -5z"/>
<path d="M14677 2688 c-4 -29 -9 -64 -12 -78 -4 -21 -3 -20 9 5 16 37 29 125
17 125 -4 0 -11 -24 -14 -52z"/>
<path d="M6848 2623 c-9 -47 -11 -80 -5 -84 8 -6 6 -41 -10 -124 -3 -20 -2
-27 5 -20 15 15 43 305 29 305 -2 0 -10 -35 -19 -77z"/>
<path d="M6755 2647 c-9 -30 -13 -57 -8 -57 13 0 63 42 58 50 -8 14 -46 19
-50 7z"/>
<path d="M6715 2563 c-9 -36 -23 -53 -39 -47 -15 6 -41 -49 -31 -65 9 -16 35
-13 35 4 0 8 -4 15 -10 15 -5 0 -10 5 -10 10 0 6 9 10 20 10 15 0 20 -7 20
-27 0 -45 9 -20 19 52 10 72 9 96 -4 48z"/>
<path d="M6761 2551 c-6 -11 -16 -52 -22 -93 -6 -40 -21 -129 -34 -198 -14
-69 -27 -163 -29 -210 l-5 -85 14 55 c8 30 22 102 30 160 9 58 27 157 41 220
14 63 27 125 29 137 7 29 -11 39 -24 14z"/>
<path d="M6640 2424 c0 -11 6 -13 19 -9 14 4 21 0 26 -15 3 -11 11 -20 16 -20
25 0 -8 40 -43 53 -12 4 -18 1 -18 -9z"/>
<path d="M6626 2358 c-9 -47 -8 -58 9 -52 11 5 15 -1 15 -21 0 -14 4 -24 9
-21 5 4 12 1 14 -4 3 -6 4 -5 3 2 -2 7 1 21 6 31 5 11 5 17 -2 17 -5 0 -10 13
-10 30 0 18 -7 33 -19 39 -16 9 -19 6 -25 -21z m31 -25 c-3 -10 -5 -4 -5 12 0
17 2 24 5 18 2 -7 2 -21 0 -30z"/>
<path d="M6615 2210 c-3 -5 -1 -10 4 -10 6 0 11 5 11 10 0 6 -2 10 -4 10 -3 0
-8 -4 -11 -10z"/>
<path d="M6662 2190 c0 -14 2 -19 5 -12 2 6 2 18 0 25 -3 6 -5 1 -5 -13z"/>
<path d="M6612 1930 c0 -14 2 -19 5 -12 2 6 2 18 0 25 -3 6 -5 1 -5 -13z"/>
<path d="M6660 1936 c0 -8 -4 -16 -9 -18 -5 -1 -11 -23 -14 -48 -3 -25 -4 -37
-1 -27 3 9 9 15 13 13 8 -6 -5 -132 -16 -156 -4 -8 -8 -53 -8 -100 -1 -47 -4
-121 -8 -165 -7 -76 -7 -79 8 -52 19 32 31 137 44 362 5 88 13 170 16 183 6
16 3 22 -9 22 -9 0 -16 -6 -16 -14z m10 -30 c0 -3 -4 -8 -10 -11 -5 -3 -10 -1
-10 4 0 6 5 11 10 11 6 0 10 -2 10 -4z"/>
<path d="M6601 1874 c0 -11 3 -14 6 -6 3 7 2 16 -1 19 -3 4 -6 -2 -5 -13z"/>
<path d="M6596 1801 c-4 -7 -5 -15 -2 -18 9 -9 19 4 14 18 -4 11 -6 11 -12 0z"/>
</g>
</svg>
